<svg width="64" height="64" viewBox="0 0 64 64" fill="none" xmlns="http://www.w3.org/2000/svg">
<path d="M13.5304 16.2696C12.8232 15.5624 11.8828 15.1729 10.8826 15.1729C9.88242 15.1729 8.94203 15.5623 8.23476 16.2696C6.77461 17.7297 6.77461 20.1055 8.23476 21.5656C8.94203 22.2728 9.88242 22.6623 10.8826 22.6623C11.8828 22.6623 12.8232 22.2729 13.5304 21.5656C14.9906 20.1055 14.9906 17.7297 13.5304 16.2696ZM12.0862 20.1213C11.7647 20.4428 11.3373 20.6198 10.8826 20.6198C10.4279 20.6198 10.0005 20.4428 9.67898 20.1213C9.01529 19.4576 9.01529 18.3778 9.67898 17.7141C10.0005 17.3927 10.4279 17.2155 10.8826 17.2155C11.3373 17.2155 11.7647 17.3927 12.0862 17.7141C12.7499 18.3778 12.7499 19.4576 12.0862 20.1213Z" fill="#FF5900"/>
<path d="M2.04255 26.4758C2.04255 13.0033 13.0033 2.04255 26.4759 2.04255C33.2206 2.04255 39.5 4.7311 44.1573 9.61307C44.5466 10.0213 45.1931 10.0366 45.6012 9.64712C46.0093 9.25781 46.0246 8.6114 45.6353 8.20317C43.1886 5.6384 40.3082 3.62104 37.0741 2.20677C33.7256 0.7424 30.1598 0 26.4759 0C11.877 0 0 11.877 0 26.4758C0 30.1598 0.742536 33.7256 2.20677 37.0741C3.62104 40.3082 5.63854 43.1886 8.2033 45.6353C8.40102 45.824 8.65471 45.9176 8.90812 45.9176C9.1776 45.9176 9.44654 45.8116 9.64725 45.6012C10.0366 45.1931 10.0213 44.5467 9.61321 44.1573C4.73123 39.5 2.04255 33.2206 2.04255 26.4758Z" fill="#FF5900"/>
<path d="M31.387 28.6888C31.951 28.6888 32.4083 28.2316 32.4083 27.6675C32.4083 27.1035 31.951 26.6462 31.387 26.6462C30.823 26.6462 30.3657 27.1035 30.3657 27.6675C30.3657 28.2316 30.823 28.6888 31.387 28.6888Z" fill="#FF5900"/>
<path d="M39.8807 41.5318C40.4447 41.5318 40.9019 41.0746 40.9019 40.5105C40.9019 39.9465 40.4447 39.4893 39.8807 39.4893C39.3166 39.4893 38.8594 39.9465 38.8594 40.5105C38.8594 41.0746 39.3166 41.5318 39.8807 41.5318Z" fill="#FF5900"/>
<path d="M48.7326 27.6673C48.7326 24.1009 45.8309 21.1992 42.2645 21.1992C38.698 21.1992 35.7964 24.1009 35.7964 27.6673C35.7964 31.2337 38.698 34.1354 42.2645 34.1354C45.8309 34.1354 48.7326 31.2337 48.7326 27.6673ZM42.2645 32.0928C39.8242 32.0928 37.8389 30.1076 37.8389 27.6673C37.8389 25.227 39.8242 23.2418 42.2645 23.2418C44.7048 23.2418 46.69 25.227 46.69 27.6673C46.69 30.1076 44.7048 32.0928 42.2645 32.0928Z" fill="#FF5900"/>
<path d="M30.0335 40.9126C26.4671 40.9126 23.5654 43.8142 23.5654 47.3807C23.5654 50.9471 26.4671 53.8488 30.0335 53.8488C33.5999 53.8488 36.5016 50.9471 36.5016 47.3807C36.5016 43.8142 33.5999 40.9126 30.0335 40.9126ZM30.0335 51.8062C27.5933 51.8062 25.608 49.821 25.608 47.3807C25.608 44.9404 27.5933 42.9552 30.0335 42.9552C32.4738 42.9552 34.459 44.9404 34.459 47.3807C34.459 49.821 32.4738 51.8062 30.0335 51.8062Z" fill="#FF5900"/>
<path d="M46.8619 44.9333C44.7971 44.9333 43.1172 46.6133 43.1172 48.678C43.1172 50.7428 44.7971 52.4227 46.8619 52.4227C48.9266 52.4227 50.6065 50.7428 50.6065 48.678C50.6065 46.6133 48.9266 44.9333 46.8619 44.9333ZM46.8619 50.3802C45.9232 50.3802 45.1597 49.6167 45.1597 48.678C45.1597 47.7394 45.9232 46.9759 46.8619 46.9759C47.8005 46.9759 48.564 47.7394 48.564 48.678C48.564 49.6167 47.8004 50.3802 46.8619 50.3802Z" fill="#FF5900"/>
<path d="M53.126 35.2231C51.0613 35.2231 49.3813 36.9031 49.3813 38.9678C49.3813 41.0326 51.0613 42.7125 53.126 42.7125C55.1908 42.7125 56.8707 41.0326 56.8707 38.9678C56.8707 36.9031 55.1908 35.2231 53.126 35.2231ZM53.126 40.67C52.1874 40.67 51.4239 39.9064 51.4239 38.9678C51.4239 38.0292 52.1874 37.2657 53.126 37.2657C54.0646 37.2657 54.8282 38.0292 54.8282 38.9678C54.8282 39.9064 54.0645 40.67 53.126 40.67Z" fill="#FF5900"/>
<path d="M25.6666 31.6565C25.6666 29.5918 23.9868 27.9119 21.9219 27.9119C19.857 27.9119 18.1772 29.5918 18.1772 31.6565C18.1772 33.7213 19.857 35.4012 21.9219 35.4012C23.9868 35.4012 25.6666 33.7214 25.6666 31.6565ZM21.9219 33.3587C20.9833 33.3587 20.2198 32.5952 20.2198 31.6565C20.2198 30.7179 20.9833 29.9544 21.9219 29.9544C22.8605 29.9544 23.6241 30.7179 23.6241 31.6565C23.6241 32.5952 22.8604 33.3587 21.9219 33.3587Z" fill="#FF5900"/>
<path d="M37.5242 11.0481C22.9254 11.0481 11.0483 22.9251 11.0483 37.5239C11.0485 52.1228 22.9254 63.9998 37.5242 63.9998C52.1231 63.9998 64.0002 52.1228 64.0002 37.5238C64.0002 22.925 52.1231 11.0481 37.5242 11.0481ZM37.5242 61.9572C24.0516 61.9572 13.0909 50.9965 13.0909 37.5238C13.0909 24.0514 24.0516 13.0905 37.5242 13.0905C50.9969 13.0906 61.9576 24.0514 61.9576 37.5238C61.9576 50.9965 50.9969 61.9572 37.5242 61.9572Z" fill="#FF5900"/>
</svg>
